<?xml version="1.0" standalone="no"?>
<!DOCTYPE svg PUBLIC "-//W3C//DTD SVG 20010904//EN"
 "http://www.w3.org/TR/2001/REC-SVG-20010904/DTD/svg10.dtd">
<svg version="1.0" xmlns="http://www.w3.org/2000/svg"
 width="204.000000pt" height="300.000000pt" viewBox="0 0 204.000000 300.000000"
 preserveAspectRatio="xMidYMid meet">
<metadata>
Created by potrace 1.12, written by Peter Selinger 2001-2015
</metadata>
<g transform="translate(0.000000,300.000000) scale(0.100000,-0.100000)"
fill="#000000" stroke="none">
<path d="M640 2989 c-50 -5 -75 -18 -269 -145 -118 -77 -216 -144 -217 -149
-1 -6 92 -90 207 -188 115 -98 209 -182 209 -187 0 -4 -8 -7 -17 -6 -23 1 -23
1 42 -182 30 -84 55 -157 55 -162 0 -4 -29 -22 -65 -39 -146 -68 -318 -218
-408 -354 -56 -84 -112 -209 -139 -307 -19 -73 -23 -109 -23 -255 0 -200 16
-279 91 -434 181 -379 543 -596 964 -578 195 8 353 59 510 162 92 61 222 188
279 273 277 413 226 953 -123 1297 -87 86 -153 133 -256 185 -36 18 -66 34
-67 35 -2 0 27 81 62 179 36 97 65 179 65 181 0 3 -13 3 -30 1 -16 -2 -30 0
-30 5 0 4 94 88 209 186 116 98 210 181 210 186 1 4 -23 22 -51 40 -29 18
-132 84 -229 145 l-176 112 -374 3 c-206 1 -399 0 -429 -4z m38 -47 c-1 -4
-41 -63 -88 -130 l-85 -122 -89 0 c-53 0 -86 4 -80 9 5 5 74 63 152 130 100
84 152 121 169 121 13 0 23 -4 21 -8z m525 -20 c-104 -159 -160 -232 -178
-231 -13 0 -39 26 -75 76 -30 42 -72 101 -93 130 l-39 53 202 0 202 0 -19 -28z
m285 -44 c48 -40 117 -99 154 -130 l69 -58 -83 0 -83 1 -80 110 c-120 164
-111 149 -85 149 13 0 57 -29 108 -72z m-661 -45 c39 -49 78 -100 88 -115 l17
-28 -177 0 -177 0 17 28 c34 52 149 202 156 202 3 0 37 -39 76 -87z m539 0
c39 -49 78 -100 88 -115 l18 -28 -177 0 -177 0 17 28 c29 46 149 202 156 202
3 0 37 -39 75 -87z m-590 -433 c62 -124 113 -231 113 -238 1 -7 -54 35 -121
95 -66 59 -185 163 -262 231 -78 67 -143 127 -144 132 -3 7 50 10 149 8 l153
-3 112 -225z m514 223 c0 -5 -41 -91 -91 -193 -50 -102 -111 -228 -136 -280
l-44 -95 -86 175 c-47 96 -109 226 -138 288 l-54 112 275 0 c151 0 274 -3 274
-7z m389 0 c0 -5 -104 -98 -230 -208 -286 -249 -313 -272 -308 -260 2 6 55
115 118 243 l114 232 154 0 c84 0 153 -3 152 -7z m-512 -848 c244 -46 446
-202 553 -427 95 -199 104 -395 28 -604 -55 -154 -183 -309 -322 -393 -389
-233 -891 -88 -1096 318 -55 107 -71 174 -77 311 -5 107 -2 138 16 210 103
411 490 662 898 585z"/>
</g>
</svg>
