<?xml version="1.0" standalone="no"?>
<!DOCTYPE svg PUBLIC "-//W3C//DTD SVG 20010904//EN"
 "http://www.w3.org/TR/2001/REC-SVG-20010904/DTD/svg10.dtd">
<svg version="1.0" xmlns="http://www.w3.org/2000/svg"
 width="128.000000pt" height="128.000000pt" viewBox="0 0 128.000000 128.000000"
 preserveAspectRatio="xMidYMid meet">
<metadata>
Created by potrace 1.12, written by Peter Selinger 2001-2015
</metadata>
<g transform="translate(0.000000,128.000000) scale(0.100000,-0.100000)"
fill="#000000" stroke="none">
<path d="M587 1192 c-46 -93 -49 -141 -12 -177 34 -35 44 -31 32 13 -9 34 -7
44 16 82 l26 44 11 -29 c12 -31 9 -86 -5 -119 -8 -17 -6 -17 23 -2 57 29 68
86 31 159 -25 47 -68 107 -78 106 -3 0 -23 -35 -44 -77z"/>
<path d="M690 935 c-19 -7 -53 -14 -75 -14 -92 -2 -149 -37 -161 -98 -5 -24
-1 -36 15 -52 16 -16 21 -33 21 -79 0 -92 12 -102 124 -102 123 0 126 3 126
138 0 83 4 109 21 146 35 71 10 92 -71 61z"/>
<path d="M184 526 c-35 -16 -74 -61 -74 -86 0 -28 37 -68 75 -80 50 -17 148
-14 184 5 17 8 38 29 46 45 19 37 40 38 57 3 20 -44 75 -65 166 -65 94 0 146
19 170 62 22 39 35 38 61 -5 25 -43 57 -56 139 -56 74 0 130 23 152 64 13 24
13 30 0 54 -8 14 -28 35 -43 47 -28 20 -39 21 -465 23 -350 2 -443 0 -468 -11z"/>
<path d="M435 350 c-17 -28 -90 -50 -166 -50 -60 0 -85 5 -122 24 l-47 23 0
-123 0 -124 -51 0 c-51 0 -51 0 -44 -27 17 -72 24 -73 635 -73 611 0 618 1
635 73 7 27 7 27 -44 27 l-51 0 0 124 0 123 -47 -23 c-37 -19 -62 -24 -122
-24 -76 0 -149 22 -166 50 -5 8 -12 7 -25 -5 -33 -29 -93 -44 -180 -44 -87 0
-147 15 -180 44 -13 12 -20 13 -25 5z"/>
</g>
</svg>
