<?xml version="1.0" standalone="no"?>
<!DOCTYPE svg PUBLIC "-//W3C//DTD SVG 20010904//EN"
 "http://www.w3.org/TR/2001/REC-SVG-20010904/DTD/svg10.dtd">
<svg version="1.0" xmlns="http://www.w3.org/2000/svg"
 width="128.000000pt" height="128.000000pt" viewBox="0 0 128.000000 128.000000"
 preserveAspectRatio="xMidYMid meet">
<metadata>
Created by potrace 1.12, written by Peter Selinger 2001-2015
</metadata>
<g transform="translate(0.000000,128.000000) scale(0.100000,-0.100000)"
fill="#000000" stroke="none">
<path d="M630 1136 c0 -92 -3 -115 -15 -120 -21 -8 -19 -63 3 -75 13 -8 7 -9
-20 -4 l-38 6 0 -42 0 -42 78 3 77 3 0 35 c0 29 -4 36 -22 38 -19 3 -21 6 -13
23 11 20 -2 59 -20 59 -6 0 -10 48 -10 115 0 70 -4 115 -10 115 -6 0 -10 -45
-10 -114z"/>
<path d="M504 844 c-96 -33 -188 -117 -232 -212 -24 -51 -27 -69 -27 -167 0
-98 3 -116 27 -167 85 -181 279 -273 472 -223 113 30 213 114 264 223 24 51
27 69 27 167 0 100 -2 115 -28 167 -39 79 -105 149 -177 187 -57 31 -66 32
-177 34 -65 1 -132 -3 -149 -9z"/>
</g>
</svg>
