<?xml version="1.0" standalone="no"?>
<!DOCTYPE svg PUBLIC "-//W3C//DTD SVG 20010904//EN"
 "http://www.w3.org/TR/2001/REC-SVG-20010904/DTD/svg10.dtd">
<svg version="1.0" xmlns="http://www.w3.org/2000/svg"
 width="128.000000pt" height="128.000000pt" viewBox="0 0 128.000000 128.000000"
 preserveAspectRatio="xMidYMid meet">
<metadata>
Created by potrace 1.12, written by Peter Selinger 2001-2015
</metadata>
<g transform="translate(0.000000,128.000000) scale(0.100000,-0.100000)"
fill="#000000" stroke="none">
<path d="M365 914 c-148 -41 -288 -79 -310 -85 l-40 -11 98 -50 99 -49 -6 -57
c-21 -208 -21 -211 8 -222 17 -6 35 -6 52 0 25 10 26 11 20 88 -4 42 -9 96
-12 120 l-5 43 188 -94 188 -95 315 158 c227 114 309 159 295 163 -50 15 -610
167 -615 166 -3 0 -126 -34 -275 -75z m322 -89 c8 -23 -4 -30 -51 -28 -24 1
-114 -19 -212 -46 l-169 -46 1 -50 c0 -28 2 -81 4 -120 3 -68 3 -70 -20 -70
-22 0 -23 3 -21 70 1 39 5 94 9 124 l7 54 180 49 c103 28 183 55 188 63 11 20
76 20 84 0z"/>
<path d="M341 542 l-11 -87 47 -42 c27 -23 77 -57 112 -75 60 -30 73 -33 156
-33 83 0 96 3 156 33 35 18 85 52 112 75 l47 42 -11 87 -12 87 -138 -70 c-76
-38 -146 -69 -154 -69 -8 0 -78 31 -154 69 l-138 70 -12 -87z"/>
</g>
</svg>
