<?xml version="1.0" standalone="no"?>
<!DOCTYPE svg PUBLIC "-//W3C//DTD SVG 20010904//EN"
 "http://www.w3.org/TR/2001/REC-SVG-20010904/DTD/svg10.dtd">
<svg version="1.0" xmlns="http://www.w3.org/2000/svg"
 width="256.000000pt" height="256.000000pt" viewBox="0 0 256.000000 256.000000"
 preserveAspectRatio="xMidYMid meet">
<metadata>
Created by potrace 1.12, written by Peter Selinger 2001-2015
</metadata>
<g transform="translate(0.000000,256.000000) scale(0.100000,-0.100000)"
fill="#000000" stroke="none">
<path d="M1234 2546 c-35 -15 -72 -58 -80 -93 -7 -27 -7 -27 -46 -7 -39 20
-110 14 -147 -13 -14 -11 -34 -40 -44 -64 -16 -37 -17 -52 -8 -85 6 -22 19
-49 30 -61 l20 -21 -42 -11 c-110 -27 -147 -162 -67 -243 16 -15 42 -31 59
-34 35 -7 36 -9 16 -44 -64 -113 73 -255 189 -195 39 21 43 19 50 -16 5 -29
42 -73 79 -94 16 -9 15 -19 -8 -145 -33 -172 -33 -172 -51 -134 -63 131 -226
194 -343 135 l-41 -22 39 -57 c79 -115 161 -171 284 -192 l67 -12 0 -34 0 -34
-372 -2 -373 -3 -3 -67 -3 -68 383 -2 383 -3 3 -33 3 -32 -356 0 -356 0 5 -32
c3 -18 13 -76 22 -128 61 -371 170 -627 288 -681 38 -17 74 -19 446 -19 404 0
405 0 455 24 109 50 202 208 259 438 31 120 66 324 66 377 0 21 -4 21 -397 23
l-398 3 -3 33 -3 32 441 0 441 0 -3 67 -3 68 -438 3 -438 2 6 83 c6 77 49 351
61 390 3 9 12 17 21 17 26 0 83 40 98 70 8 16 15 43 15 60 0 36 2 36 39 9 63
-47 152 -29 198 40 27 39 30 102 9 143 -15 29 -12 38 15 38 28 0 86 57 99 96
29 86 -38 184 -125 184 l-27 0 23 36 c45 73 20 167 -53 205 -51 26 -98 24
-141 -6 l-36 -24 -11 37 c-13 47 -27 64 -70 91 -40 24 -81 26 -126 7z m152
-397 c54 -50 55 -126 4 -178 -54 -54 -134 -49 -185 10 -19 24 -25 42 -25 79 0
43 5 54 35 84 50 50 121 52 171 5z"/>
<path d="M1570 1569 c-97 -19 -199 -91 -254 -178 -29 -46 -56 -132 -56 -180 0
-35 0 -35 16 -13 21 30 153 142 195 166 32 18 32 17 -6 -15 -47 -39 -115 -109
-157 -161 l-30 -38 34 0 c58 0 166 28 230 59 101 48 179 126 272 273 l18 27
-40 25 c-21 13 -65 29 -97 35 -65 12 -63 12 -125 0z"/>
</g>
</svg>
