<?xml version="1.0" standalone="no"?>
<!DOCTYPE svg PUBLIC "-//W3C//DTD SVG 20010904//EN"
 "http://www.w3.org/TR/2001/REC-SVG-20010904/DTD/svg10.dtd">
<svg version="1.0" xmlns="http://www.w3.org/2000/svg"
 width="512.000000pt" height="512.000000pt" viewBox="0 0 512.000000 512.000000"
 preserveAspectRatio="xMidYMid meet">
<metadata>
Created by potrace 1.12, written by Peter Selinger 2001-2015
</metadata>
<g transform="translate(0.000000,512.000000) scale(0.100000,-0.100000)"
fill="#000000" stroke="none">
<path d="M2051 4813 c0 -5 53 -267 117 -583 l117 -575 174 0 174 0 265 538
c145 296 261 541 258 545 -6 5 -988 80 -1078 82 -16 0 -28 -3 -27 -7z"/>
<path d="M3024 3976 l-282 -353 432 185 c237 101 435 187 439 191 7 7 -284
323 -301 328 -4 1 -134 -157 -288 -351z"/>
<path d="M1746 4121 l-197 -198 312 -176 c172 -98 313 -176 315 -175 2 3 -223
739 -229 744 -1 2 -92 -86 -201 -195z"/>
<path d="M2200 1895 l0 -1595 375 0 375 0 0 1595 0 1595 -375 0 -375 0 0
-1595z"/>
<path d="M510 3075 l0 -405 725 0 725 0 0 405 0 405 -725 0 -725 0 0 -405z"/>
<path d="M3160 3075 l0 -405 725 0 725 0 0 405 0 405 -725 0 -725 0 0 -405z"/>
<path d="M646 2358 c5 -42 184 -2034 184 -2050 0 -4 254 -8 565 -8 l565 0 0
1050 0 1050 -660 0 -660 0 6 -42z"/>
<path d="M3160 1350 l0 -1050 565 0 c311 0 565 4 565 8 0 16 179 2006 184
2050 l6 42 -660 0 -660 0 0 -1050z"/>
</g>
</svg>
