<?xml version="1.0" standalone="no"?>
<!DOCTYPE svg PUBLIC "-//W3C//DTD SVG 20010904//EN"
 "http://www.w3.org/TR/2001/REC-SVG-20010904/DTD/svg10.dtd">
<svg version="1.0" xmlns="http://www.w3.org/2000/svg"
 width="1097.000000pt" height="861.000000pt" viewBox="0 0 1097.000000 861.000000"
 preserveAspectRatio="xMidYMid meet">
<metadata>
Created by potrace 1.12, written by Peter Selinger 2001-2015
</metadata>
<g transform="translate(0.000000,861.000000) scale(0.100000,-0.100000)"
fill="#000000" stroke="none">
<path d="M6342 8403 c-17 -10 -61 -46 -97 -80 -72 -70 -97 -80 -271 -106 -130
-21 -265 -72 -519 -197 -458 -226 -771 -491 -1010 -858 -219 -335 -340 -712
-407 -1267 -15 -125 -18 -790 -5 -916 l8 -76 167 -43 c222 -56 329 -86 434
-122 81 -28 89 -34 113 -74 29 -49 101 -192 143 -285 16 -35 73 -161 127 -279
188 -411 281 -565 435 -719 263 -263 535 -341 978 -280 192 27 498 138 877
319 77 37 169 81 205 98 36 16 106 49 155 72 738 344 1263 486 1785 483 272
-2 492 -33 675 -95 110 -37 151 -65 277 -186 97 -92 173 -140 205 -128 13 5
15 20 11 82 -6 90 -26 123 -158 261 -137 144 -204 217 -360 393 -41 47 -77 87
-80 90 -3 3 -50 57 -105 120 -123 143 -249 283 -336 375 -141 147 -188 207
-210 262 -6 15 -15 82 -19 149 -9 131 -25 203 -72 334 -86 242 -160 473 -244
765 -162 561 -318 887 -536 1119 -142 152 -296 265 -492 360 -316 153 -680
234 -1236 273 l-105 8 -7 59 c-4 32 -12 64 -18 71 -29 35 -252 48 -308 18z"/>
<path d="M737 7234 c-134 -49 -347 -261 -436 -436 -62 -121 -58 -146 48 -277
118 -147 1074 -1126 1451 -1487 63 -60 169 -161 235 -224 181 -173 312 -297
395 -374 41 -38 109 -101 150 -140 41 -39 136 -127 210 -196 74 -69 167 -155
205 -191 39 -36 99 -92 135 -124 36 -32 119 -109 185 -170 66 -61 185 -171
265 -245 80 -73 196 -181 259 -239 63 -58 119 -110 125 -116 6 -5 74 -68 151
-140 77 -71 169 -157 205 -190 154 -143 563 -529 695 -655 382 -365 781 -761
1130 -1124 l230 -238 6 -110 c6 -117 15 -139 73 -182 36 -27 131 -28 201 -2
128 48 315 209 366 315 23 47 36 142 25 184 -7 28 -50 76 -91 103 -33 20 -146
26 -197 10 -26 -8 -40 4 -239 200 -492 486 -1153 1192 -1665 1779 -33 39 -132
151 -219 250 -198 226 -185 211 -340 390 -72 83 -142 164 -156 180 -14 17 -63
73 -109 125 -45 52 -106 122 -135 155 -29 33 -83 96 -121 139 -38 44 -91 105
-119 136 -27 30 -75 85 -105 120 -30 35 -77 90 -105 120 -27 31 -77 88 -111
126 -249 283 -498 562 -605 678 -30 34 -106 117 -169 186 -360 398 -804 852
-1285 1315 -252 243 -315 297 -396 334 -71 34 -87 36 -142 15z"/>
<path d="M3930 2085 c-36 -8 -108 -36 -160 -62 -128 -63 -228 -161 -287 -284
-53 -111 -67 -173 -66 -294 3 -236 99 -422 275 -536 209 -136 537 -135 753 1
130 83 237 231 271 376 23 102 16 297 -15 384 -31 87 -98 186 -171 254 -75 69
-131 102 -234 139 -100 35 -263 45 -366 22z"/>
</g>
</svg>
