<?xml version="1.0" standalone="no"?>
<!DOCTYPE svg PUBLIC "-//W3C//DTD SVG 20010904//EN"
 "http://www.w3.org/TR/2001/REC-SVG-20010904/DTD/svg10.dtd">
<svg version="1.0" xmlns="http://www.w3.org/2000/svg"
 width="200.000000pt" height="172.000000pt" viewBox="0 0 200.000000 172.000000"
 preserveAspectRatio="xMidYMid meet">
<metadata>
Created by potrace 1.12, written by Peter Selinger 2001-2015
</metadata>
<g transform="translate(0.000000,172.000000) scale(0.100000,-0.100000)"
fill="#000000" stroke="none">
<path d="M420 1704 c-216 -46 -388 -233 -412 -447 -10 -91 2 -227 27 -297 25
-70 74 -160 120 -220 78 -101 267 -271 486 -436 118 -89 251 -194 297 -233 45
-39 82 -67 82 -61 0 19 140 157 242 238 57 45 168 130 248 189 239 178 364
310 429 455 56 125 75 279 47 388 -39 150 -155 292 -298 362 -101 50 -148 61
-258 62 -75 1 -110 -4 -169 -23 -75 -25 -196 -97 -240 -145 l-24 -25 -58 54
c-137 126 -335 179 -519 139z m451 -366 c30 -14 72 -40 92 -58 l37 -32 35 31
c61 53 113 74 197 79 88 5 147 -11 218 -59 141 -97 179 -266 97 -432 -46 -93
-99 -147 -277 -280 -74 -55 -163 -129 -198 -164 -35 -35 -67 -63 -71 -63 -4 0
-16 10 -27 21 -10 12 -77 67 -149 121 -223 171 -244 189 -320 282 -89 108
-119 262 -75 379 29 77 106 156 180 185 75 30 183 26 261 -10z"/>
</g>
</svg>
